HIERARCHY
ROOT Hips
{
	OFFSET 0.000000 88.474243 0.000000
	CHANNELS 6 Xposition Yposition Zposition Zrotation Yrotation Xrotation 
	JOINT Hips_Spine
	{
		OFFSET 0.000000 0.000000 0.000000
		CHANNELS 3 Zrotation Yrotation Xrotation
		JOINT Spine
		{
			OFFSET 0.005100 8.711998 -0.691000
			CHANNELS 3 Zrotation Yrotation Xrotation
			JOINT Spine1
			{
				OFFSET -0.009200 8.660301 -1.275000
				CHANNELS 3 Zrotation Yrotation Xrotation
				JOINT Spine2
				{
					OFFSET 0.006300 9.852501 -1.857000
					CHANNELS 3 Zrotation Yrotation Xrotation
					JOINT Spine2_Neck
					{
						OFFSET 0.000000 0.000000 0.000000
						CHANNELS 3 Zrotation Yrotation Xrotation
						JOINT Neck
						{
							OFFSET 0.016300 11.420799 -0.263300
							CHANNELS 3 Zrotation Yrotation Xrotation
							End Site #name: Head
							{
								OFFSET -0.019200 9.262405 2.362500
							}
						}
					}
					JOINT Spine2_LeftShoulder
					{
						OFFSET 0.000000 0.000000 0.000000
						CHANNELS 3 Zrotation Yrotation Xrotation
						JOINT LeftShoulder
						{
							OFFSET 5.616900 6.732201 -0.345700
							CHANNELS 3 Zrotation Yrotation Xrotation
							JOINT LeftArm
							{
								OFFSET 10.664888 -0.183372 -2.440700
								CHANNELS 3 Zrotation Yrotation Xrotation
								JOINT LeftForeArm
								{
									OFFSET 27.459126 0.000000 0.000000
									CHANNELS 3 Zrotation Yrotation Xrotation
									End Site #name: LeftHand
									{
										OFFSET 21.306858 0.000000 0.000000
									}
								}
							}
						}
					}
					JOINT Spine2_RightShoulder
					{
						OFFSET 0.000000 0.000000 0.000000
						CHANNELS 3 Zrotation Yrotation Xrotation
						JOINT RightShoulder
						{
							OFFSET -5.580300 6.737503 -0.344400
							CHANNELS 3 Zrotation Yrotation Xrotation
							JOINT RightArm
							{
								OFFSET -10.679335 -0.188484 -2.383900
								CHANNELS 3 Zrotation Yrotation Xrotation
								JOINT RightForeArm
								{
									OFFSET -27.503529 0.000000 0.000000
									CHANNELS 3 Zrotation Yrotation Xrotation
									End Site #name: RightHand
									{
										OFFSET -21.306808 0.000000 0.000000
									}
								}
							}
						}
					}
				}
			}
		}
	}
	JOINT Hips_LeftUpLeg
	{
		OFFSET 0.000000 0.000000 0.000000
		CHANNELS 3 Zrotation Yrotation Xrotation
		JOINT LeftUpLeg
		{
			OFFSET 6.857700 -6.739601 0.312100
			CHANNELS 3 Zrotation Yrotation Xrotation
			JOINT LeftLeg
			{
				OFFSET -0.367590 -34.731552 -4.572400
				CHANNELS 3 Zrotation Yrotation Xrotation
				End Site #name: LeftFoot
				{
					OFFSET 0.367590 -34.656704 -6.067400
				}
			}
		}
	}
	JOINT Hips_RightUpLeg
	{
		OFFSET 0.000000 0.000000 0.000000
		CHANNELS 3 Zrotation Yrotation Xrotation
		JOINT RightUpLeg
		{
			OFFSET -6.876100 -6.733299 0.301000
			CHANNELS 3 Zrotation Yrotation Xrotation
			JOINT RightLeg
			{
				OFFSET 0.347353 -34.795158 -4.515900
				CHANNELS 3 Zrotation Yrotation Xrotation
				End Site #name: RightFoot
				{
					OFFSET -0.347353 -34.589367 -6.070300
				}
			}
		}
	}
}
MOTION
Frames: 17
Frame Time: 0.041667
0.000000 -0.000000 0.000000 -2.924048 -2.797804 83.868882 0.000000 0.000000 0.000000 0.059494 1.576977 -6.926698 0.087385 0.336320 -1.550846 0.000000 0.000000 0.000000 0.086598 0.335809 -1.551523 3.933408 -9.808810 2.263511 0.086598 0.335809 -1.551523 4.130083 2.894685 0.029483 -55.944399 48.202080 13.616124 179.999983 -61.549481 179.999987 0.086598 0.335809 -1.551523 4.955969 -8.162903 -0.600421 41.229545 -35.825046 15.586463 179.999993 63.379357 179.999978 0.000000 0.000000 0.000000 5.540228 4.811661 -10.384588 5.455284 2.486727 25.347044 0.000000 0.000000 0.000000 -11.420288 -10.767402 -13.049330 -4.130898 -10.048010 26.450598 
0.024862 0.788956 -0.110527 -2.926136 -2.967591 82.990774 0.000000 0.000000 0.000000 0.318591 1.406821 -6.370896 0.143881 0.298972 -1.439451 0.000000 0.000000 0.000000 0.143282 0.298892 -1.439981 3.638856 -9.464296 2.673449 0.143282 0.298892 -1.439981 3.834166 1.401096 0.114741 -55.834715 47.392390 13.414064 179.999995 -62.428512 -179.999981 0.143282 0.298892 -1.439981 4.997822 -7.963690 -0.576309 41.977301 -33.461561 14.743778 179.999994 63.774153 179.999981 0.000000 0.000000 0.000000 5.414595 4.652202 -10.560864 5.512192 2.219949 26.577235 0.000000 0.000000 0.000000 -11.722204 -10.948526 -12.971000 -4.388526 -10.431776 27.387742 
0.087889 1.703156 -0.230361 -3.361599 -3.411649 82.229797 0.000000 0.000000 0.000000 0.377208 1.421760 -5.860599 0.156909 0.299630 -1.306169 0.000000 0.000000 0.000000 0.156367 0.299782 -1.306678 3.472991 -9.120572 2.919364 0.156367 0.299782 -1.306678 3.265942 0.129323 0.222047 -56.052322 46.593078 12.329662 179.999936 -63.121326 -179.999955 0.156367 0.299782 -1.306678 5.345535 -6.871373 -0.445254 42.662063 -31.589168 13.412653 -179.999989 64.200343 -179.999993 0.000000 0.000000 0.000000 5.106710 4.559865 -10.842689 5.535834 2.425494 27.705142 0.000000 0.000000 0.000000 -12.116330 -11.158134 -13.464246 -4.789202 -10.386575 28.534770 
0.174328 2.679352 -0.340187 -3.853058 -4.025624 81.376460 0.000000 0.000000 0.000000 0.250816 1.536270 -5.283478 0.142406 0.320302 -1.172226 0.000000 0.000000 0.000000 0.141894 0.320440 -1.172776 3.353230 -8.784281 3.167400 0.141894 0.320440 -1.172776 2.885443 -0.224858 0.273491 -56.354311 44.627844 11.546894 179.999959 -64.156495 -179.999958 0.141894 0.320440 -1.172776 5.752872 -5.723252 -0.301291 43.060184 -29.549846 12.360200 179.999961 64.971062 179.999935 0.000000 0.000000 0.000000 4.685414 4.494477 -10.910494 5.576276 2.763935 28.500352 0.000000 0.000000 0.000000 -12.756478 -11.555317 -13.943596 -4.781736 -9.706820 29.551992 
0.313194 3.709702 -0.456451 -3.989931 -4.627623 80.489510 0.000000 0.000000 0.000000 0.118154 1.558337 -4.738855 0.130317 0.326629 -1.060381 0.000000 0.000000 0.000000 0.129842 0.326567 -1.061003 3.247116 -8.511163 3.370056 0.129842 0.326567 -1.061003 2.745522 -0.576685 0.310741 -57.322770 42.201232 10.484367 179.999913 -65.635068 -179.999948 0.129842 0.326567 -1.061003 6.060687 -5.266509 -0.244067 43.092720 -26.640100 11.955233 -179.999959 66.247366 -179.999984 0.000000 0.000000 0.000000 4.213433 4.360638 -11.047275 5.805733 3.287343 29.095300 0.000000 0.000000 0.000000 -13.877246 -12.367712 -14.202942 -4.524700 -9.677687 30.458287 
0.476412 4.799828 -0.627212 -4.153340 -5.190458 79.658159 0.000000 0.000000 0.000000 0.075502 1.542265 -4.229287 0.142244 0.324003 -0.937214 0.000000 0.000000 0.000000 0.141862 0.324014 -0.937867 3.202873 -8.273727 3.489065 0.141862 0.324014 -0.937867 2.461890 -1.254865 0.389329 -58.551233 40.085588 8.856030 -179.999996 -67.102690 -179.999991 0.141862 0.324014 -0.937867 6.454377 -4.918538 -0.200828 42.750633 -23.377843 11.689080 -179.999927 67.637050 -179.999962 0.000000 0.000000 0.000000 3.792566 4.272504 -11.416261 6.097579 3.819267 29.954083 0.000000 0.000000 0.000000 -14.956671 -13.051813 -14.530328 -4.428801 -9.670933 31.432592 
0.662642 5.962548 -0.807441 -4.747648 -5.733433 78.918045 0.000000 0.000000 0.000000 0.132432 1.620272 -3.649118 0.169568 0.335029 -0.820376 0.000000 0.000000 0.000000 0.169251 0.335135 -0.821216 3.124808 -7.982883 3.572307 0.169251 0.335135 -0.821216 2.129165 -1.825281 0.471320 -59.258898 37.984656 7.741697 -179.999952 -68.614196 179.999916 0.169251 0.335135 -0.821216 6.782449 -4.062237 -0.080880 42.420522 -20.241576 11.267079 -179.999905 69.271397 -179.999926 0.000000 0.000000 0.000000 3.517068 4.316180 -11.854344 6.383801 4.414850 30.734018 0.000000 0.000000 0.000000 -15.845053 -13.645935 -14.993823 -4.479645 -9.665968 32.366271 
0.837771 7.214692 -0.996009 -5.542779 -6.204621 78.224464 0.000000 0.000000 0.000000 0.282095 1.681625 -2.928891 0.211594 0.347526 -0.652519 0.000000 0.000000 0.000000 0.211384 0.348327 -0.653422 2.885233 -7.642157 3.593568 0.211384 0.348327 -0.653422 1.585419 -2.156794 0.562480 -59.374094 35.703823 6.974627 -179.999957 -70.105925 179.999928 0.211384 0.348327 -0.653422 6.862884 -3.247030 0.037289 42.160268 -16.645412 11.125963 -180.000000 71.372939 179.999999 0.000000 0.000000 0.000000 3.385098 4.379311 -12.366544 6.580137 4.842642 31.238355 0.000000 0.000000 0.000000 -16.698925 -14.364975 -15.301074 -4.583193 -9.846983 33.171656 
1.026023 8.554207 -1.165634 -6.290346 -6.629874 77.299161 0.000000 0.000000 0.000000 0.506140 1.798078 -1.898256 0.267318 0.380694 -0.419758 0.000000 0.000000 0.000000 0.267266 0.383006 -0.420691 2.536104 -7.337130 3.664075 0.267266 0.383006 -0.420691 0.913855 -2.953589 0.728537 -59.696838 33.499110 5.639444 -179.999967 -71.688786 179.999922 0.267266 0.383006 -0.420691 6.868149 -2.559951 0.137213 41.922538 -12.748558 10.939999 -179.999923 73.879371 -179.999894 0.000000 0.000000 0.000000 3.258396 4.339344 -12.546422 6.631012 4.968896 31.199129 0.000000 0.000000 0.000000 -17.745145 -15.530893 -15.363770 -4.502507 -10.383373 34.010174 
1.264276 9.954697 -1.263610 -7.036961 -7.058714 76.364955 0.000000 0.000000 0.000000 0.789179 1.899194 -0.739165 0.314749 0.392559 -0.168090 0.000000 0.000000 0.000000 0.314747 0.396511 -0.169014 2.186673 -7.042240 3.619851 0.314747 0.396511 -0.169014 0.473985 -3.048489 0.797093 -59.821720 30.336391 5.068352 -179.999987 -73.896707 179.999963 0.314747 0.396511 -0.169014 6.991885 -1.635239 0.273654 41.685079 -8.911093 10.365694 179.999975 76.607998 179.999974 0.000000 0.000000 0.000000 3.043149 4.178773 -12.383601 6.470787 4.771180 30.483758 0.000000 0.000000 0.000000 -18.721544 -17.042454 -15.635161 -4.404299 -11.212045 35.207260 
1.514639 11.386933 -1.385620 -7.775442 -7.519395 75.575065 0.000000 0.000000 0.000000 1.069975 2.054584 0.314630 0.369205 0.447341 0.078056 0.000000 0.000000 0.000000 0.369310 0.452933 0.077092 1.923347 -6.736484 3.557626 0.369310 0.452933 0.077092 0.362573 -3.075923 0.815286 -60.273787 26.902210 4.587630 -179.999845 -76.533147 179.999850 0.369310 0.452933 0.077092 7.787383 -0.520598 0.457898 40.752063 -5.461859 9.175177 -179.999929 79.008440 -179.999967 0.000000 0.000000 0.000000 2.887931 4.132815 -12.176619 5.924492 4.145735 29.642282 0.000000 0.000000 0.000000 -19.465355 -18.910372 -16.542458 -4.374423 -11.790715 37.129889 
1.777087 12.829087 -1.631103 -8.470835 -8.027100 74.838755 0.000000 0.000000 0.000000 1.292938 2.154731 1.373283 0.426573 0.466475 0.301200 0.000000 0.000000 0.000000 0.426873 0.473396 0.300129 1.754574 -6.442157 3.519198 0.426873 0.473396 0.300129 0.367580 -3.116710 0.819604 -61.073250 23.595115 3.702148 -179.999807 -79.217698 179.999747 0.426873 0.473396 0.300129 8.964730 0.754895 0.698230 39.339580 -2.048566 7.628852 -179.999856 81.369684 -179.999892 0.000000 0.000000 0.000000 2.850718 4.392304 -12.189055 5.275708 3.545106 29.386537 0.000000 0.000000 0.000000 -20.040929 -21.080848 -18.713873 -4.451768 -11.754135 39.983189 
2.057408 14.275345 -1.949577 -9.179819 -8.520745 74.110561 0.000000 0.000000 0.000000 1.546940 2.209624 2.454414 0.508025 0.486836 0.569954 0.000000 0.000000 0.000000 0.508695 0.495097 0.568633 1.538224 -6.138550 3.534170 0.508695 0.495097 0.568633 0.356806 -3.056740 0.813667 -61.885917 20.253268 2.753539 179.999760 -81.915035 -179.999943 0.508695 0.495097 0.568633 9.761866 2.094086 0.957499 38.234110 1.463256 5.977051 179.998599 84.133275 179.998571 0.000000 0.000000 0.000000 2.713242 4.470383 -12.444719 4.945087 3.019214 29.497277 0.000000 0.000000 0.000000 -20.583596 -23.350275 -21.027517 -4.951598 -11.491697 43.167421 
2.363076 15.705765 -2.300453 -10.064442 -9.030744 73.541139 0.000000 0.000000 0.000000 1.863147 2.390875 3.399480 0.597750 0.532747 0.766397 0.000000 0.000000 0.000000 0.598876 0.542868 0.764568 1.288551 -5.859729 3.575858 0.598876 0.542868 0.764568 0.323819 -3.178387 0.833151 -62.926301 17.167017 1.450054 179.997754 -84.685556 -179.997786 0.598876 0.542868 0.764568 10.173466 3.447068 1.214268 37.405776 4.827776 4.472173 179.998221 87.277259 179.998244 0.000000 0.000000 0.000000 2.494013 4.345676 -13.009155 5.025403 2.851496 29.789601 0.000000 0.000000 0.000000 -20.892598 -25.590573 -23.450629 -5.440298 -11.299542 46.002076 
2.648324 17.107178 -2.670791 -10.967684 -9.513935 73.119407 0.000000 0.000000 0.000000 2.192161 2.621610 4.247760 0.684645 0.584110 0.969834 0.000000 0.000000 0.000000 0.686277 0.595794 0.967399 1.109091 -5.606505 3.668520 0.686277 0.595794 0.967399 0.300378 -3.125352 0.829686 -63.721611 13.919891 0.368562 179.999441 -87.554762 -179.999481 0.686277 0.595794 0.967399 10.668596 4.764629 1.480990 36.300708 8.057823 2.974418 -0.042944 89.634417 -0.042945 0.000000 0.000000 0.000000 2.405176 4.355945 -13.738284 5.018157 2.792468 30.204669 0.000000 0.000000 0.000000 -20.780034 -27.707463 -25.955752 -5.936643 -11.029408 48.527463 
2.911827 18.484013 -3.078620 -11.890183 -10.091227 72.726737 0.000000 0.000000 0.000000 2.339760 2.806513 5.133997 0.735780 0.644607 1.164318 0.000000 0.000000 0.000000 0.738192 0.658492 1.161066 0.943502 -5.332955 3.745041 0.738192 0.658492 1.161066 0.196024 -3.069182 0.836591 -63.952505 10.783431 -0.623215 0.005712 -89.799816 -0.005749 0.738192 0.658492 1.161066 11.321455 6.084837 1.773574 34.868310 11.246778 1.556208 0.000007 86.624140 -0.000007 0.000000 0.000000 0.000000 2.259456 4.279457 -14.431476 4.969076 2.663803 30.663977 0.000000 0.000000 0.000000 -20.764929 -29.349635 -28.210091 -6.183086 -10.943829 50.790165 
3.171214 19.809529 -3.547538 -12.847001 -10.714279 72.346755 0.000000 0.000000 0.000000 2.409479 3.044829 6.043499 0.767140 0.711769 1.375629 0.000000 0.000000 0.000000 0.770469 0.727816 1.371289 0.804766 -5.053889 3.774698 0.770469 0.727816 1.371289 0.098086 -3.069439 0.849638 -64.044396 7.783358 -1.763744 0.000150 -87.385679 -0.000158 0.770469 0.727816 1.371289 11.907763 7.341225 2.063261 33.380864 14.341522 0.104315 -0.000601 83.667604 -0.000628 0.000000 0.000000 0.000000 2.065522 4.102424 -15.213550 5.121168 2.657332 31.405774 0.000000 0.000000 0.000000 -21.026896 -30.473120 -30.144328 -5.506509 -10.675806 52.698249 
